<?xml version="1.0" encoding="UTF-8" standalone="no"?>
<svg
   xmlns:dc="http://purl.org/dc/elements/1.1/"
   xmlns:cc="http://creativecommons.org/ns#"
   xmlns:rdf="http://www.w3.org/1999/02/22-rdf-syntax-ns#"
   xmlns:svg="http://www.w3.org/2000/svg"
   xmlns="http://www.w3.org/2000/svg"
   xmlns:sodipodi="http://sodipodi.sourceforge.net/DTD/sodipodi-0.dtd"
   xmlns:inkscape="http://www.inkscape.org/namespaces/inkscape"
   version="1.1"
   id="svg851"
   xml:space="preserve"
   width="313.92419"
   height="100.45001"
   viewBox="0 0 313.92419 100.45001"
   sodipodi:docname="beattie_and_wang.svg"
   inkscape:version="1.0.2 (e86c870879, 2021-01-15)"><metadata
     id="metadata857"><rdf:RDF><cc:Work
         rdf:about=""><dc:format>image/svg+xml</dc:format><dc:type
           rdf:resource="http://purl.org/dc/dcmitype/StillImage" /><dc:title /></cc:Work></rdf:RDF></metadata><defs
     id="defs855"><marker
       style="overflow:visible"
       id="marker4663"
       refX="0"
       refY="0"
       orient="auto"
       inkscape:stockid="Arrow2Lend"
       inkscape:isstock="true"><path
         transform="matrix(-1.1,0,0,-1.1,-1.1,0)"
         d="M 8.7185878,4.0337352 -2.2072895,0.01601326 8.7185884,-4.0017078 c -1.7454984,2.3720609 -1.7354408,5.6174519 -6e-7,8.035443 z"
         style="fill:#000000;fill-opacity:1;fill-rule:evenodd;stroke:#000000;stroke-width:0.625;stroke-linejoin:round;stroke-opacity:1"
         id="path4661" /></marker></defs><sodipodi:namedview
     pagecolor="#ffffff"
     bordercolor="#666666"
     borderopacity="1"
     objecttolerance="10"
     gridtolerance="10"
     guidetolerance="10"
     inkscape:pageopacity="0"
     inkscape:pageshadow="2"
     inkscape:window-width="1600"
     inkscape:window-height="836"
     id="namedview853"
     showgrid="false"
     fit-margin-top="0"
     fit-margin-left="0"
     fit-margin-right="0"
     fit-margin-bottom="0"
     inkscape:zoom="2.751911"
     inkscape:cx="150.62796"
     inkscape:cy="58.203316"
     inkscape:window-x="0"
     inkscape:window-y="27"
     inkscape:window-maximized="1"
     inkscape:current-layer="g859"
     inkscape:document-rotation="0" /><g
     id="g859"
     inkscape:groupmode="layer"
     inkscape:label="beattie_and_wang"
     transform="matrix(1.3333333,0,0,1.3333333,-8.0427308,-5.3641826)"><g
       id="g4751"
       transform="matrix(2.8346458,0,0,2.8346458,-14.208689,-1.4968584)"><g
         id="g4659"
         transform="translate(-6.8684889,-14.540669)"><flowRoot
           xml:space="preserve"
           id="flowRoot4649"
           style="font-style:normal;font-weight:normal;font-size:1.41111px;line-height:1.25;font-family:sans-serif;letter-spacing:0px;word-spacing:0px;fill:#000000;fill-opacity:1;stroke:none"
           transform="matrix(2,0,0,2,-32.409506,-41.847431)"><flowRegion
             id="flowRegion4645"><rect
               id="rect4643"
               width="5.2276788"
               height="2.9442255"
               x="33.81897"
               y="41.113995"
               style="stroke-width:0.264583" /></flowRegion><flowPara
             id="flowPara4647"
             style="font-style:italic">V</flowPara></flowRoot><flowRoot
           xml:space="preserve"
           id="flowRoot4657"
           style="font-style:normal;font-weight:normal;font-size:1.41111px;line-height:1.25;font-family:sans-serif;letter-spacing:0px;word-spacing:0px;fill:#000000;fill-opacity:1;stroke:none"
           transform="matrix(2,0,0,2,-32.409506,-41.847431)"><flowRegion
             id="flowRegion4653"><rect
               id="rect4651"
               width="5.2276788"
               height="2.9442255"
               x="33.81897"
               y="41.113995"
               style="stroke-width:0.264583" /></flowRegion><flowPara
             id="flowPara4655"
             style="font-style:normal" /></flowRoot></g></g><g
       id="g867"
       transform="matrix(0.5,0,0,0.5,-7.1382542,-4.2955747)"><path
         d="m 202.176,116.949 c 0,8.125 -6.586,14.711 -14.711,14.711 -8.125,0 -14.711,-6.586 -14.711,-14.711 0,-8.125 6.586,-14.711 14.711,-14.711 8.125,0 14.711,6.586 14.711,14.711 z"
         style="fill:none;stroke:#000000;stroke-width:1.70079;stroke-linecap:butt;stroke-linejoin:miter;stroke-miterlimit:4;stroke-dasharray:none;stroke-opacity:1"
         id="path869" /></g><g
       id="g871"
       transform="matrix(0.5,0,0,0.5,-7.1382542,-4.2955747)"><path
         d="m 274.344,116.949 c 0,8.125 -6.586,14.711 -14.711,14.711 -8.125,0 -14.711,-6.586 -14.711,-14.711 0,-8.125 6.586,-14.711 14.711,-14.711 8.125,0 14.711,6.586 14.711,14.711 z"
         style="fill:#3bf795;fill-opacity:1;fill-rule:nonzero;stroke:#000000;stroke-width:1.70079;stroke-linecap:butt;stroke-linejoin:miter;stroke-miterlimit:4;stroke-dasharray:none;stroke-opacity:1"
         id="path873" /></g><g
       id="g881"
       transform="matrix(0.5,0,0,0.5,-7.1382542,-4.2955747)"><path
         d="M 61.277,112.535 H 95.684 L 82.719,105.051"
         style="fill:none;stroke:#000000;stroke-width:0.749999;stroke-linecap:butt;stroke-linejoin:miter;stroke-miterlimit:4;stroke-dasharray:none;stroke-opacity:1"
         id="path883" /></g><g
       id="g885"
       transform="matrix(0.5,0,0,0.5,-7.1382542,-4.2955747)"><path
         d="M 97.887,118.758 H 63.48 l 12.965,7.484"
         style="fill:none;stroke:#000000;stroke-width:0.749999;stroke-linecap:butt;stroke-linejoin:miter;stroke-miterlimit:4;stroke-dasharray:none;stroke-opacity:1"
         id="path887" /></g><g
       id="g889"
       transform="matrix(0.5,0,0,0.5,-7.1382542,-4.2955747)"><path
         d="m 133.605,112.535 h 34.407 l -12.965,-7.484"
         style="fill:none;stroke:#000000;stroke-width:0.749999;stroke-linecap:butt;stroke-linejoin:miter;stroke-miterlimit:4;stroke-dasharray:none;stroke-opacity:1"
         id="path891" /></g><g
       id="g893"
       transform="matrix(0.5,0,0,0.5,-7.1382542,-4.2955747)"><path
         d="m 170.211,118.758 h -34.406 l 12.965,7.484"
         style="fill:none;stroke:#000000;stroke-width:0.749999;stroke-linecap:butt;stroke-linejoin:miter;stroke-miterlimit:4;stroke-dasharray:none;stroke-opacity:1"
         id="path895" /></g><g
       id="g897"
       transform="matrix(0.5,0,0,0.5,-7.1382542,-4.2955747)"><path
         d="m 205.82,112.535 h 34.407 l -12.965,-7.484"
         style="fill:none;stroke:#000000;stroke-width:0.749999;stroke-linecap:butt;stroke-linejoin:miter;stroke-miterlimit:4;stroke-dasharray:none;stroke-opacity:1"
         id="path899" /></g><g
       id="g901"
       transform="matrix(0.5,0,0,0.5,-7.1382542,-4.2955747)"><path
         d="M 242.426,118.758 H 208.02 l 12.964,7.484"
         style="fill:none;stroke:#000000;stroke-width:0.749999;stroke-linecap:butt;stroke-linejoin:miter;stroke-miterlimit:4;stroke-dasharray:none;stroke-opacity:1"
         id="path903" /></g><g
       id="g905"
       transform="matrix(0,0.5,-0.5,0,-7.1382542,-4.2955747)"><path
         d="M 58.539,-262.598 H 92.945 L 79.98,-270.082"
         style="fill:none;stroke:#000000;stroke-width:0.749999;stroke-linecap:butt;stroke-linejoin:miter;stroke-miterlimit:4;stroke-dasharray:none;stroke-opacity:1"
         id="path907" /></g><g
       id="g909"
       transform="matrix(0,0.5,-0.5,0,-7.1382542,-4.2955747)"><path
         d="M 95.145,-256.375 H 60.742 l 12.965,7.484"
         style="fill:none;stroke:#000000;stroke-width:0.749999;stroke-linecap:butt;stroke-linejoin:miter;stroke-miterlimit:4;stroke-dasharray:none;stroke-opacity:1"
         id="path911" /></g><g
       id="g913"
       transform="matrix(0.5,0,0,0.5,-7.1382542,-8.100692)"><path
         d="M 62.871,153.352 H 243.52"
         style="fill:none;stroke:#000000;stroke-width:0.751181;stroke-linecap:butt;stroke-linejoin:miter;stroke-miterlimit:4;stroke-dasharray:none;stroke-opacity:1"
         id="path915" /></g><g
       id="g917"
       transform="matrix(-0.5,0,0,-0.5,-7.1382542,-8.100692)"><path
         d="m -235.488,-150.02 -9.028,-3.32 9.028,-3.32 c -1.442,1.961 -1.434,4.64 0,6.64 z"
         style="fill:#000000;fill-opacity:1;fill-rule:evenodd;stroke:#000000;stroke-width:0.516437;stroke-linecap:butt;stroke-linejoin:round;stroke-miterlimit:4;stroke-dasharray:none;stroke-opacity:1"
         id="path919" /></g><g
       id="g921"
       transform="matrix(0.5,0,0,0.5,-7.1382542,-4.2955747)"><path
         d="M 296.754,123.16 V 40.297"
         style="fill:none;stroke:#000000;stroke-width:0.751181;stroke-linecap:butt;stroke-linejoin:miter;stroke-miterlimit:4;stroke-dasharray:none;stroke-opacity:1"
         id="path923" /></g><g
       id="g925"
       transform="matrix(0,0.5,-0.5,0,-7.1382542,-4.2955747)"><path
         d="m 48.328,-293.422 -9.027,-3.32 9.027,-3.32 c -1.441,1.96 -1.433,4.644 0,6.64 z"
         style="fill:#000000;fill-opacity:1;fill-rule:evenodd;stroke:#000000;stroke-width:0.516437;stroke-linecap:butt;stroke-linejoin:round;stroke-miterlimit:4;stroke-dasharray:none;stroke-opacity:1"
         id="path927" /></g><g
       id="g935"
       transform="matrix(0.5,0,0,0.5,-7.1382542,-4.2955747)"><path
         d="m 205.82,32.883 h 34.407 l -12.965,-7.485"
         style="fill:none;stroke:#000000;stroke-width:0.749999;stroke-linecap:butt;stroke-linejoin:miter;stroke-miterlimit:4;stroke-dasharray:none;stroke-opacity:1"
         id="path937" /></g><g
       id="g939"
       transform="matrix(0.5,0,0,0.5,-7.1382542,-4.2955747)"><path
         d="M 242.426,39.105 H 208.02 l 12.964,7.485"
         style="fill:none;stroke:#000000;stroke-width:0.749999;stroke-linecap:butt;stroke-linejoin:miter;stroke-miterlimit:4;stroke-dasharray:none;stroke-opacity:1"
         id="path941" /></g><g
       id="g943"
       transform="matrix(0,0.5,-0.5,0,-7.1382542,-4.2955747)"><path
         d="M 58.539,-190.086 H 92.945 L 79.98,-197.57"
         style="fill:none;stroke:#000000;stroke-width:0.749999;stroke-linecap:butt;stroke-linejoin:miter;stroke-miterlimit:4;stroke-dasharray:none;stroke-opacity:1"
         id="path945" /></g><g
       id="g947"
       transform="matrix(0,0.5,-0.5,0,-7.1382542,-4.2955747)"><path
         d="M 95.145,-183.863 H 60.742 l 12.965,7.484"
         style="fill:none;stroke:#000000;stroke-width:0.749999;stroke-linecap:butt;stroke-linejoin:miter;stroke-miterlimit:4;stroke-dasharray:none;stroke-opacity:1"
         id="path949" /></g><g
       id="g951"
       transform="matrix(0.5,0,0,0.5,-7.1382542,-4.2955747)"><path
         d="m 27.191,101.973 h 30.562 v 30.562 H 27.191 Z"
         style="fill:none;stroke:#000000;stroke-width:1.70079;stroke-linecap:butt;stroke-linejoin:miter;stroke-miterlimit:4;stroke-dasharray:none;stroke-opacity:1"
         id="path953" /></g><g
       id="g955"
       transform="matrix(0.5,0,0,0.5,-7.1382542,-4.2955747)"><path
         d="m 99.816,101.973 h 30.562 v 30.562 H 99.816 Z"
         style="fill:none;stroke:#000000;stroke-width:1.70079;stroke-linecap:butt;stroke-linejoin:miter;stroke-miterlimit:4;stroke-dasharray:none;stroke-opacity:1"
         id="path957" /></g><g
       id="g959"
       transform="matrix(0.5,0.5,-0.5,0.5,-7.1382542,-4.2955747)"><path
         d="m 102.059,-84.219 18.908,-0.002 -0.002,18.909 h -18.906 z"
         style="fill:none;stroke:#000000;stroke-width:1.20264;stroke-linecap:butt;stroke-linejoin:miter;stroke-miterlimit:4;stroke-dasharray:none;stroke-opacity:1"
         id="path961" /></g><g
       id="g967"
       transform="matrix(0.5,0,0,0.5,-7.1382542,-4.2955747)"><path
         d="m 273.996,36.406 c 0,8.125 -6.586,14.711 -14.711,14.711 -8.125,0 -14.711,-6.586 -14.711,-14.711 0,-8.125 6.586,-14.711 14.711,-14.711 8.125,0 14.711,6.586 14.711,14.711 z"
         style="fill:none;stroke:#000000;stroke-width:1.70079;stroke-linecap:butt;stroke-linejoin:miter;stroke-miterlimit:4;stroke-dasharray:none;stroke-opacity:1"
         id="path969" /></g><g
       id="g1244"
       transform="translate(0,-5.1232177)"><g
         id="g975"
         transform="matrix(0.5,0.5,-0.5,0.5,145.21522,17.466429)"><path
           d="m 37.963,-17.154 h 9.082 l -0.002,9.08 -9.08,-0.002 z"
           style="fill:none;stroke:#000000;stroke-width:0.577493;stroke-linecap:butt;stroke-linejoin:miter;stroke-miterlimit:4;stroke-dasharray:none;stroke-opacity:1"
           id="path977" /></g><g
         id="g979"
         transform="matrix(0.5,0,0,0.5,145.21522,17.466429)"><path
           d="M 47.781,43.02 H 62.457 V 57.696 H 47.781 Z"
           style="fill:none;stroke:#000000;stroke-width:0.816698;stroke-linecap:butt;stroke-linejoin:miter;stroke-miterlimit:4;stroke-dasharray:none;stroke-opacity:1"
           id="path981" /></g><g
         id="g983"
         transform="matrix(0.5,0,0,0.5,145.21522,17.466429)"><path
           d="m 62.184,69.191 c 0,3.903 -3.164,7.071 -7.067,7.071 -3.898,0 -7.062,-3.168 -7.062,-7.071 0,-3.894 3.164,-7.058 7.062,-7.058 3.903,0 7.067,3.164 7.067,7.058 z"
           style="fill:none;stroke:#000000;stroke-width:0.816698;stroke-linecap:butt;stroke-linejoin:miter;stroke-miterlimit:4;stroke-dasharray:none;stroke-opacity:1"
           id="path985" /></g><text
         style="font-variant:normal;font-weight:normal;font-size:8px;font-family:'Bitstream Vera Sans';-inkscape-font-specification:BitstreamVeraSans-Roman;writing-mode:lr-tb;fill:#000000;fill-opacity:1;fill-rule:nonzero;stroke:none;stroke-width:0.5"
         id="text993"
         x="186.0416"
         y="35.393353"><tspan
           x="186.0416"
           y="35.393353"
           sodipodi:role="line"
           style="font-size:8px;stroke-width:0.5"
           id="tspan1066">Beattie model</tspan></text><text
         style="font-variant:normal;font-weight:normal;font-size:8px;font-family:'Bitstream Vera Sans';-inkscape-font-specification:BitstreamVeraSans-Roman;writing-mode:lr-tb;fill:#000000;fill-opacity:1;fill-rule:nonzero;stroke:none;stroke-width:0.5"
         id="text1086"
         x="186.0416"
         y="45.62785"><tspan
           x="186.0416"
           y="45.62785"
           sodipodi:role="line"
           style="font-size:8px;stroke-width:0.5"
           id="tspan1084">Wang model</tspan></text><text
         style="font-variant:normal;font-weight:normal;font-size:8px;font-family:'Bitstream Vera Sans';-inkscape-font-specification:BitstreamVeraSans-Roman;writing-mode:lr-tb;fill:#000000;fill-opacity:1;fill-rule:nonzero;stroke:none;stroke-width:0.5"
         id="text1090"
         x="186.0416"
         y="55.047604"><tspan
           x="186.0416"
           y="55.047604"
           sodipodi:role="line"
           style="font-size:8px;stroke-width:0.5"
           id="tspan1088">Both models</tspan></text></g><flowRoot
       xml:space="preserve"
       id="flowRoot1264"
       style="font-style:normal;font-weight:normal;font-size:4px;line-height:1.25;font-family:sans-serif;letter-spacing:0px;word-spacing:0px;fill:#000000;fill-opacity:1;stroke:none"
       transform="matrix(2,0,0,2,41.619652,25.028535)"><flowRegion
         id="flowRegion1266"><rect
           id="rect1268"
           width="17.272364"
           height="10.969159"
           x="38.955536"
           y="12.491449"
           style="stroke-width:0.75" /></flowRegion><flowPara
         id="flowPara1270">O</flowPara></flowRoot><flowRoot
       xml:space="preserve"
       id="flowRoot1278"
       style="font-style:normal;font-weight:normal;font-size:4px;line-height:1.25;font-family:sans-serif;letter-spacing:0px;word-spacing:0px;fill:#000000;fill-opacity:1;stroke:none"
       transform="matrix(2,0,0,2,3.441902,25.028535)"><flowRegion
         id="flowRegion1274"><rect
           id="rect1272"
           width="5.6661391"
           height="5.394917"
           x="38.955536"
           y="12.491449"
           style="stroke-width:0.75" /></flowRegion><flowPara
         id="flowPara1276">C3</flowPara></flowRoot><flowRoot
       xml:space="preserve"
       id="flowRoot1286"
       style="font-style:normal;font-weight:normal;font-size:4px;line-height:1.25;font-family:sans-serif;letter-spacing:0px;word-spacing:0px;fill:#000000;fill-opacity:1;stroke:none"
       transform="matrix(2,0,0,2,-32.66202,25.181035)"><flowRegion
         id="flowRegion1282"><rect
           id="rect1280"
           width="17.272364"
           height="10.969159"
           x="38.955536"
           y="12.491449"
           style="stroke-width:0.75" /></flowRegion><flowPara
         id="flowPara1284">C2</flowPara></flowRoot><flowRoot
       xml:space="preserve"
       id="flowRoot1294"
       style="font-style:normal;font-weight:normal;font-size:4px;line-height:1.25;font-family:sans-serif;letter-spacing:0px;word-spacing:0px;fill:#000000;fill-opacity:1;stroke:none"
       transform="matrix(2,0,0,2,-69.00577,25.181035)"><flowRegion
         id="flowRegion1290"><rect
           id="rect1288"
           width="17.272364"
           height="10.969159"
           x="38.955536"
           y="12.491449"
           style="stroke-width:0.75" /></flowRegion><flowPara
         id="flowPara1292">C1</flowPara></flowRoot><flowRoot
       xml:space="preserve"
       id="flowRoot1302"
       style="font-style:normal;font-weight:normal;font-size:4px;line-height:1.25;font-family:sans-serif;letter-spacing:0px;word-spacing:0px;fill:#000000;fill-opacity:1;stroke:none"
       transform="matrix(2,0,0,2,3.9429339,-15.072715)"><flowRegion
         id="flowRegion1298"><rect
           id="rect1296"
           width="17.272364"
           height="10.969159"
           x="38.955536"
           y="12.491449"
           style="stroke-width:0.75" /></flowRegion><flowPara
         id="flowPara1300">IC</flowPara></flowRoot><flowRoot
       xml:space="preserve"
       id="flowRoot1310"
       style="font-style:normal;font-weight:normal;font-size:4px;line-height:1.25;font-family:sans-serif;letter-spacing:0px;word-spacing:0px;fill:#000000;fill-opacity:1;stroke:none"
       transform="matrix(2,0,0,2,43.414402,-15.239059)"><flowRegion
         id="flowRegion1306"><rect
           id="rect1304"
           width="17.272364"
           height="10.969159"
           x="38.955536"
           y="12.491449"
           style="stroke-width:0.75" /></flowRegion><flowPara
         id="flowPara1308">I</flowPara></flowRoot><flowRoot
       xml:space="preserve"
       id="flowRoot4408"
       style="font-style:normal;font-weight:normal;font-size:1.41111px;line-height:1.25;font-family:sans-serif;letter-spacing:0px;word-spacing:0px;fill:#000000;fill-opacity:1;stroke:none"
       transform="matrix(5.6692916,0,0,5.6692916,-47.130197,-200.67661)"><flowRegion
         id="flowRegion4404"><rect
           id="rect4402"
           width="5.2276788"
           height="2.9442255"
           x="33.81897"
           y="41.113995"
           style="stroke-width:0.264583" /></flowRegion><flowPara
         id="flowPara4406"
         style="font-style:italic">V</flowPara></flowRoot></g></svg>
